<?xml version="1.0" encoding="utf-8"?>
<!-- Generator: Adobe Illustrator 19.0.0, SVG Export Plug-In . SVG Version: 6.00 Build 0)  -->
<svg version="1.1"
	 id="svg2850" inkscape:version="0.48.2 r9819" inkscape:export-ydpi="201.87675" inkscape:export-filename="/home/bocian/Pulpit/alojzy/mac/rys3.png" inkscape:export-xdpi="201.87675" sodipodi:docname="alojzy_laptop.svg" xmlns:sodipodi="http://sodipodi.sourceforge.net/DTD/sodipodi-0.dtd" xmlns:svg="http://www.w3.org/2000/svg" xmlns:dc="http://purl.org/dc/elements/1.1/" xmlns:rdf="http://www.w3.org/1999/02/22-rdf-syntax-ns#" xmlns:cc="http://creativecommons.org/ns#" xmlns:inkscape="http://www.inkscape.org/namespaces/inkscape"
	 xmlns="http://www.w3.org/2000/svg" xmlns:xlink="http://www.w3.org/1999/xlink" x="0px" y="0px"
	 viewBox="-414 -63.9967 496.9532 499.9967" style="enable-background:new -414 -63.9967 496.9532 499.9967;" xml:space="preserve">
<style type="text/css">
	.st0{fill:url(#path3226-99-2-1_1_);stroke:#000000;stroke-width:1.9489;stroke-linecap:round;stroke-linejoin:round;}
	.st1{fill:url(#path3228-6-2-1_1_);stroke:#000000;stroke-width:1.9489;stroke-linecap:round;stroke-linejoin:round;}
	.st2{fill:url(#path3230-06-1-9_1_);stroke:#000000;stroke-width:1.9489;stroke-linecap:round;stroke-linejoin:round;}
	.st3{fill:url(#path3224-49-6-0_1_);stroke:#000000;stroke-width:1.9489;stroke-linecap:round;stroke-linejoin:round;}
	.st4{fill:url(#path3220-9-3-8_1_);stroke:#000000;stroke-width:1.9489;stroke-linecap:round;stroke-linejoin:round;}
	.st5{fill:url(#path3222-0-0-9_1_);stroke:#000000;stroke-width:1.9489;stroke-linecap:round;stroke-linejoin:round;}
	.st6{fill-opacity:0.3137;}
	.st7{fill:#784421;stroke:#000000;stroke-width:1.9489;stroke-linecap:round;}
	.st8{fill:#FFFFFF;stroke:#000000;stroke-width:1.9489;stroke-linecap:round;stroke-linejoin:round;}
	.st9{fill:#784421;stroke:#000000;stroke-width:1.9489;}
	.st10{fill:#784421;stroke:#000000;stroke-width:1.9487;}
	.st11{fill:#784421;stroke:#000000;stroke-width:1.9489;stroke-linecap:round;stroke-linejoin:round;}
	.st12{fill:#FFFFFF;stroke:#000000;stroke-width:1.9489;stroke-linecap:round;}
	.st13{fill:url(#path2391-21-6-1_1_);stroke:#000000;stroke-width:1.9489;}
	.st14{fill:#FFFFFF;stroke:#000000;stroke-width:1.9489;stroke-linejoin:round;}
	.st15{stroke:#000000;stroke-width:5;stroke-linecap:round;}
	.st16{fill:#FFFFFF;}
	.st17{fill:url(#rect2830-0-7-4-7-4_1_);stroke:#000000;stroke-width:1.9487;}
	.st18{fill:#999999;stroke:#000000;stroke-width:1.9487;}
	.st19{fill:none;}
	.st20{fill:#3A3236;}
	.st21{font-family:'Roboto-Black';}
	.st22{font-size:60px;}
</style>
<defs>
	
	
		<inkscape:perspective  id="perspective2858" inkscape:persp3d-origin="372.04724 : 350.78739 : 1" inkscape:vp_x="0 : 526.18109 : 1" sodipodi:type="inkscape:persp3d" inkscape:vp_z="744.09448 : 526.18109 : 1" inkscape:vp_y="0 : 1000 : 0">
		</inkscape:perspective>
	
		<inkscape:perspective  id="perspective2868" inkscape:persp3d-origin="0.5 : 0.33333333 : 1" inkscape:vp_x="0 : 0.5 : 1" sodipodi:type="inkscape:persp3d" inkscape:vp_z="1 : 0.5 : 1" inkscape:vp_y="0 : 1000 : 0">
		</inkscape:perspective>
	
		<inkscape:perspective  id="perspective3927" inkscape:persp3d-origin="0.5 : 0.33333333 : 1" inkscape:vp_x="0 : 0.5 : 1" sodipodi:type="inkscape:persp3d" inkscape:vp_z="1 : 0.5 : 1" inkscape:vp_y="0 : 1000 : 0">
		</inkscape:perspective>
	
		<inkscape:perspective  id="perspective3336" inkscape:persp3d-origin="0.5 : 0.33333333 : 1" inkscape:vp_x="0 : 0.5 : 1" sodipodi:type="inkscape:persp3d" inkscape:vp_z="1 : 0.5 : 1" inkscape:vp_y="0 : 1000 : 0">
		</inkscape:perspective>
	
		<inkscape:perspective  id="perspective4279" inkscape:persp3d-origin="0.5 : 0.33333333 : 1" inkscape:vp_x="0 : 0.5 : 1" sodipodi:type="inkscape:persp3d" inkscape:vp_z="1 : 0.5 : 1" inkscape:vp_y="0 : 1000 : 0">
		</inkscape:perspective>
	
		<inkscape:perspective  id="perspective4342" inkscape:persp3d-origin="0.5 : 0.33333333 : 1" inkscape:vp_x="0 : 0.5 : 1" sodipodi:type="inkscape:persp3d" inkscape:vp_z="1 : 0.5 : 1" inkscape:vp_y="0 : 1000 : 0">
		</inkscape:perspective>
	
		<inkscape:perspective  id="perspective4364" inkscape:persp3d-origin="0.5 : 0.33333333 : 1" inkscape:vp_x="0 : 0.5 : 1" sodipodi:type="inkscape:persp3d" inkscape:vp_z="1 : 0.5 : 1" inkscape:vp_y="0 : 1000 : 0">
		</inkscape:perspective>
	
		<inkscape:perspective  id="perspective4471" inkscape:persp3d-origin="0.5 : 0.33333333 : 1" inkscape:vp_x="0 : 0.5 : 1" sodipodi:type="inkscape:persp3d" inkscape:vp_z="1 : 0.5 : 1" inkscape:vp_y="0 : 1000 : 0">
		</inkscape:perspective>
	
		<inkscape:perspective  id="perspective4725" inkscape:persp3d-origin="0.5 : 0.33333333 : 1" inkscape:vp_x="0 : 0.5 : 1" sodipodi:type="inkscape:persp3d" inkscape:vp_z="1 : 0.5 : 1" inkscape:vp_y="0 : 1000 : 0">
		</inkscape:perspective>
	
		<inkscape:perspective  id="perspective5032" inkscape:persp3d-origin="0.5 : 0.33333333 : 1" inkscape:vp_x="0 : 0.5 : 1" sodipodi:type="inkscape:persp3d" inkscape:vp_z="1 : 0.5 : 1" inkscape:vp_y="0 : 1000 : 0">
		</inkscape:perspective>
	
		<inkscape:perspective  id="perspective5294" inkscape:persp3d-origin="0.5 : 0.33333333 : 1" inkscape:vp_x="0 : 0.5 : 1" sodipodi:type="inkscape:persp3d" inkscape:vp_z="1 : 0.5 : 1" inkscape:vp_y="0 : 1000 : 0">
		</inkscape:perspective>
	
		<inkscape:perspective  id="perspective5593" inkscape:persp3d-origin="0.5 : 0.33333333 : 1" inkscape:vp_x="0 : 0.5 : 1" sodipodi:type="inkscape:persp3d" inkscape:vp_z="1 : 0.5 : 1" inkscape:vp_y="0 : 1000 : 0">
		</inkscape:perspective>
	
		<inkscape:perspective  id="perspective5733" inkscape:persp3d-origin="0.5 : 0.33333333 : 1" inkscape:vp_x="0 : 0.5 : 1" sodipodi:type="inkscape:persp3d" inkscape:vp_z="1 : 0.5 : 1" inkscape:vp_y="0 : 1000 : 0">
		</inkscape:perspective>
	
		<inkscape:perspective  id="perspective5995" inkscape:persp3d-origin="0.5 : 0.33333333 : 1" inkscape:vp_x="0 : 0.5 : 1" sodipodi:type="inkscape:persp3d" inkscape:vp_z="1 : 0.5 : 1" inkscape:vp_y="0 : 1000 : 0">
		</inkscape:perspective>
	
		<inkscape:perspective  id="perspective6017" inkscape:persp3d-origin="0.5 : 0.33333333 : 1" inkscape:vp_x="0 : 0.5 : 1" sodipodi:type="inkscape:persp3d" inkscape:vp_z="1 : 0.5 : 1" inkscape:vp_y="0 : 1000 : 0">
		</inkscape:perspective>
	
		<inkscape:perspective  id="perspective6274" inkscape:persp3d-origin="0.5 : 0.33333333 : 1" inkscape:vp_x="0 : 0.5 : 1" sodipodi:type="inkscape:persp3d" inkscape:vp_z="1 : 0.5 : 1" inkscape:vp_y="0 : 1000 : 0">
		</inkscape:perspective>
	
		<inkscape:perspective  id="perspective6531" inkscape:persp3d-origin="0.5 : 0.33333333 : 1" inkscape:vp_x="0 : 0.5 : 1" sodipodi:type="inkscape:persp3d" inkscape:vp_z="1 : 0.5 : 1" inkscape:vp_y="0 : 1000 : 0">
		</inkscape:perspective>
	
		<inkscape:perspective  id="perspective6553" inkscape:persp3d-origin="0.5 : 0.33333333 : 1" inkscape:vp_x="0 : 0.5 : 1" sodipodi:type="inkscape:persp3d" inkscape:vp_z="1 : 0.5 : 1" inkscape:vp_y="0 : 1000 : 0">
		</inkscape:perspective>
	
		<inkscape:perspective  id="perspective6813" inkscape:persp3d-origin="0.5 : 0.33333333 : 1" inkscape:vp_x="0 : 0.5 : 1" sodipodi:type="inkscape:persp3d" inkscape:vp_z="1 : 0.5 : 1" inkscape:vp_y="0 : 1000 : 0">
		</inkscape:perspective>
	
		<inkscape:perspective  id="perspective7224" inkscape:persp3d-origin="0.5 : 0.33333333 : 1" inkscape:vp_x="0 : 0.5 : 1" sodipodi:type="inkscape:persp3d" inkscape:vp_z="1 : 0.5 : 1" inkscape:vp_y="0 : 1000 : 0">
		</inkscape:perspective>
	
		<inkscape:perspective  id="perspective7555" inkscape:persp3d-origin="0.5 : 0.33333333 : 1" inkscape:vp_x="0 : 0.5 : 1" sodipodi:type="inkscape:persp3d" inkscape:vp_z="1 : 0.5 : 1" inkscape:vp_y="0 : 1000 : 0">
		</inkscape:perspective>
	
		<inkscape:perspective  id="perspective7770" inkscape:persp3d-origin="0.5 : 0.33333333 : 1" inkscape:vp_x="0 : 0.5 : 1" sodipodi:type="inkscape:persp3d" inkscape:vp_z="1 : 0.5 : 1" inkscape:vp_y="0 : 1000 : 0">
		</inkscape:perspective>
	
		<inkscape:perspective  id="perspective8067" inkscape:persp3d-origin="0.5 : 0.33333333 : 1" inkscape:vp_x="0 : 0.5 : 1" sodipodi:type="inkscape:persp3d" inkscape:vp_z="1 : 0.5 : 1" inkscape:vp_y="0 : 1000 : 0">
		</inkscape:perspective>
	
		<inkscape:perspective  id="perspective8315" inkscape:persp3d-origin="0.5 : 0.33333333 : 1" inkscape:vp_x="0 : 0.5 : 1" sodipodi:type="inkscape:persp3d" inkscape:vp_z="1 : 0.5 : 1" inkscape:vp_y="0 : 1000 : 0">
		</inkscape:perspective>
	
		<inkscape:perspective  id="perspective8587" inkscape:persp3d-origin="0.5 : 0.33333333 : 1" inkscape:vp_x="0 : 0.5 : 1" sodipodi:type="inkscape:persp3d" inkscape:vp_z="1 : 0.5 : 1" inkscape:vp_y="0 : 1000 : 0">
		</inkscape:perspective>
	
		<inkscape:perspective  id="perspective8884" inkscape:persp3d-origin="0.5 : 0.33333333 : 1" inkscape:vp_x="0 : 0.5 : 1" sodipodi:type="inkscape:persp3d" inkscape:vp_z="1 : 0.5 : 1" inkscape:vp_y="0 : 1000 : 0">
		</inkscape:perspective>
	
		<inkscape:perspective  id="perspective3885" inkscape:persp3d-origin="0.5 : 0.33333333 : 1" inkscape:vp_x="0 : 0.5 : 1" sodipodi:type="inkscape:persp3d" inkscape:vp_z="1 : 0.5 : 1" inkscape:vp_y="0 : 1000 : 0">
		</inkscape:perspective>
	
		<inkscape:perspective  id="perspective3899" inkscape:persp3d-origin="0.5 : 0.33333333 : 1" inkscape:vp_x="0 : 0.5 : 1" sodipodi:type="inkscape:persp3d" inkscape:vp_z="1 : 0.5 : 1" inkscape:vp_y="0 : 1000 : 0">
		</inkscape:perspective>
	
		<inkscape:perspective  id="perspective4696" inkscape:persp3d-origin="0.5 : 0.33333333 : 1" inkscape:vp_x="0 : 0.5 : 1" sodipodi:type="inkscape:persp3d" inkscape:vp_z="1 : 0.5 : 1" inkscape:vp_y="0 : 1000 : 0">
		</inkscape:perspective>
	
		<inkscape:perspective  id="perspective4718" inkscape:persp3d-origin="0.5 : 0.33333333 : 1" inkscape:vp_x="0 : 0.5 : 1" sodipodi:type="inkscape:persp3d" inkscape:vp_z="1 : 0.5 : 1" inkscape:vp_y="0 : 1000 : 0">
		</inkscape:perspective>
	
		<inkscape:perspective  id="perspective4750" inkscape:persp3d-origin="0.5 : 0.33333333 : 1" inkscape:vp_x="0 : 0.5 : 1" sodipodi:type="inkscape:persp3d" inkscape:vp_z="1 : 0.5 : 1" inkscape:vp_y="0 : 1000 : 0">
		</inkscape:perspective>
	
		<inkscape:perspective  id="perspective4781" inkscape:persp3d-origin="0.5 : 0.33333333 : 1" inkscape:vp_x="0 : 0.5 : 1" sodipodi:type="inkscape:persp3d" inkscape:vp_z="1 : 0.5 : 1" inkscape:vp_y="0 : 1000 : 0">
		</inkscape:perspective>
	
		<inkscape:perspective  id="perspective4812" inkscape:persp3d-origin="0.5 : 0.33333333 : 1" inkscape:vp_x="0 : 0.5 : 1" sodipodi:type="inkscape:persp3d" inkscape:vp_z="1 : 0.5 : 1" inkscape:vp_y="0 : 1000 : 0">
		</inkscape:perspective>
	
		<inkscape:perspective  id="perspective4843" inkscape:persp3d-origin="0.5 : 0.33333333 : 1" inkscape:vp_x="0 : 0.5 : 1" sodipodi:type="inkscape:persp3d" inkscape:vp_z="1 : 0.5 : 1" inkscape:vp_y="0 : 1000 : 0">
		</inkscape:perspective>
	
		<inkscape:perspective  id="perspective4843-7" inkscape:persp3d-origin="0.5 : 0.33333333 : 1" inkscape:vp_x="0 : 0.5 : 1" sodipodi:type="inkscape:persp3d" inkscape:vp_z="1 : 0.5 : 1" inkscape:vp_y="0 : 1000 : 0">
		</inkscape:perspective>
	
		<inkscape:perspective  id="perspective4843-74" inkscape:persp3d-origin="0.5 : 0.33333333 : 1" inkscape:vp_x="0 : 0.5 : 1" sodipodi:type="inkscape:persp3d" inkscape:vp_z="1 : 0.5 : 1" inkscape:vp_y="0 : 1000 : 0">
		</inkscape:perspective>
	
		<inkscape:perspective  id="perspective4843-744" inkscape:persp3d-origin="0.5 : 0.33333333 : 1" inkscape:vp_x="0 : 0.5 : 1" sodipodi:type="inkscape:persp3d" inkscape:vp_z="1 : 0.5 : 1" inkscape:vp_y="0 : 1000 : 0">
		</inkscape:perspective>
	
		<inkscape:perspective  id="perspective4927" inkscape:persp3d-origin="0.5 : 0.33333333 : 1" inkscape:vp_x="0 : 0.5 : 1" sodipodi:type="inkscape:persp3d" inkscape:vp_z="1 : 0.5 : 1" inkscape:vp_y="0 : 1000 : 0">
		</inkscape:perspective>
	
		<inkscape:perspective  id="perspective4958" inkscape:persp3d-origin="0.5 : 0.33333333 : 1" inkscape:vp_x="0 : 0.5 : 1" sodipodi:type="inkscape:persp3d" inkscape:vp_z="1 : 0.5 : 1" inkscape:vp_y="0 : 1000 : 0">
		</inkscape:perspective>
	
		<inkscape:perspective  id="perspective4997" inkscape:persp3d-origin="0.5 : 0.33333333 : 1" inkscape:vp_x="0 : 0.5 : 1" sodipodi:type="inkscape:persp3d" inkscape:vp_z="1 : 0.5 : 1" inkscape:vp_y="0 : 1000 : 0">
		</inkscape:perspective>
	
		<inkscape:perspective  id="perspective4997-4" inkscape:persp3d-origin="0.5 : 0.33333333 : 1" inkscape:vp_x="0 : 0.5 : 1" sodipodi:type="inkscape:persp3d" inkscape:vp_z="1 : 0.5 : 1" inkscape:vp_y="0 : 1000 : 0">
		</inkscape:perspective>
	
		<inkscape:perspective  id="perspective5043" inkscape:persp3d-origin="0.5 : 0.33333333 : 1" inkscape:vp_x="0 : 0.5 : 1" sodipodi:type="inkscape:persp3d" inkscape:vp_z="1 : 0.5 : 1" inkscape:vp_y="0 : 1000 : 0">
		</inkscape:perspective>
	
		<inkscape:perspective  id="perspective5043-7" inkscape:persp3d-origin="0.5 : 0.33333333 : 1" inkscape:vp_x="0 : 0.5 : 1" sodipodi:type="inkscape:persp3d" inkscape:vp_z="1 : 0.5 : 1" inkscape:vp_y="0 : 1000 : 0">
		</inkscape:perspective>
	
		<inkscape:perspective  id="perspective5043-0" inkscape:persp3d-origin="0.5 : 0.33333333 : 1" inkscape:vp_x="0 : 0.5 : 1" sodipodi:type="inkscape:persp3d" inkscape:vp_z="1 : 0.5 : 1" inkscape:vp_y="0 : 1000 : 0">
		</inkscape:perspective>
	
		<inkscape:perspective  id="perspective5043-9" inkscape:persp3d-origin="0.5 : 0.33333333 : 1" inkscape:vp_x="0 : 0.5 : 1" sodipodi:type="inkscape:persp3d" inkscape:vp_z="1 : 0.5 : 1" inkscape:vp_y="0 : 1000 : 0">
		</inkscape:perspective>
	
		<inkscape:perspective  id="perspective5119" inkscape:persp3d-origin="0.5 : 0.33333333 : 1" inkscape:vp_x="0 : 0.5 : 1" sodipodi:type="inkscape:persp3d" inkscape:vp_z="1 : 0.5 : 1" inkscape:vp_y="0 : 1000 : 0">
		</inkscape:perspective>
	
		<inkscape:perspective  id="perspective5154" inkscape:persp3d-origin="0.5 : 0.33333333 : 1" inkscape:vp_x="0 : 0.5 : 1" sodipodi:type="inkscape:persp3d" inkscape:vp_z="1 : 0.5 : 1" inkscape:vp_y="0 : 1000 : 0">
		</inkscape:perspective>
	
		<inkscape:perspective  id="perspective3338" inkscape:persp3d-origin="320 : 160 : 1" inkscape:vp_x="0 : 240 : 1" sodipodi:type="inkscape:persp3d" inkscape:vp_z="640 : 240 : 1" inkscape:vp_y="0 : 1000 : 0">
		</inkscape:perspective>
	
		<inkscape:perspective  id="perspective3348" inkscape:persp3d-origin="0.5 : 0.33333333 : 1" inkscape:vp_x="0 : 0.5 : 1" sodipodi:type="inkscape:persp3d" inkscape:vp_z="1 : 0.5 : 1" inkscape:vp_y="0 : 1000 : 0">
		</inkscape:perspective>
	
		<inkscape:perspective  id="perspective3688" inkscape:persp3d-origin="0.5 : 0.33333333 : 1" inkscape:vp_x="0 : 0.5 : 1" sodipodi:type="inkscape:persp3d" inkscape:vp_z="1 : 0.5 : 1" inkscape:vp_y="0 : 1000 : 0">
		</inkscape:perspective>
	
		<inkscape:perspective  id="perspective7520" inkscape:persp3d-origin="0.5 : 0.33333333 : 1" inkscape:vp_x="0 : 0.5 : 1" sodipodi:type="inkscape:persp3d" inkscape:vp_z="1 : 0.5 : 1" inkscape:vp_y="0 : 1000 : 0">
		</inkscape:perspective>
	
		<inkscape:perspective  id="perspective3744" inkscape:persp3d-origin="0.5 : 0.33333333 : 1" inkscape:vp_x="0 : 0.5 : 1" sodipodi:type="inkscape:persp3d" inkscape:vp_z="1 : 0.5 : 1" inkscape:vp_y="0 : 1000 : 0">
		</inkscape:perspective>
	
		<inkscape:perspective  id="perspective2952" inkscape:persp3d-origin="0.5 : 0.33333333 : 1" inkscape:vp_x="0 : 0.5 : 1" sodipodi:type="inkscape:persp3d" inkscape:vp_z="1 : 0.5 : 1" inkscape:vp_y="0 : 1000 : 0">
		</inkscape:perspective>
	
		<inkscape:perspective  id="perspective3007" inkscape:persp3d-origin="0.5 : 0.33333333 : 1" inkscape:vp_x="0 : 0.5 : 1" sodipodi:type="inkscape:persp3d" inkscape:vp_z="1 : 0.5 : 1" inkscape:vp_y="0 : 1000 : 0">
		</inkscape:perspective>
	
		<inkscape:perspective  id="perspective2923" inkscape:persp3d-origin="0.5 : 0.33333333 : 1" inkscape:vp_x="0 : 0.5 : 1" sodipodi:type="inkscape:persp3d" inkscape:vp_z="1 : 0.5 : 1" inkscape:vp_y="0 : 1000 : 0">
		</inkscape:perspective>
	
		<inkscape:perspective  id="perspective2870" inkscape:persp3d-origin="32 : 21.333333 : 1" inkscape:vp_x="0 : 32 : 1" sodipodi:type="inkscape:persp3d" inkscape:vp_z="64 : 32 : 1" inkscape:vp_y="0 : 1000 : 0">
		</inkscape:perspective>
	
		<inkscape:perspective  id="perspective2848" inkscape:persp3d-origin="32 : 21.333333 : 1" inkscape:vp_x="0 : 32 : 1" sodipodi:type="inkscape:persp3d" inkscape:vp_z="64 : 32 : 1" inkscape:vp_y="0 : 1000 : 0">
		</inkscape:perspective>
	
		<inkscape:perspective  id="perspective2827" inkscape:persp3d-origin="32 : 21.333333 : 1" inkscape:vp_x="0 : 32 : 1" sodipodi:type="inkscape:persp3d" inkscape:vp_z="64 : 32 : 1" inkscape:vp_y="0 : 1000 : 0">
		</inkscape:perspective>
	
		<inkscape:perspective  id="perspective3647" inkscape:persp3d-origin="0.5 : 0.33333333 : 1" inkscape:vp_x="0 : 0.5 : 1" sodipodi:type="inkscape:persp3d" inkscape:vp_z="1 : 0.5 : 1" inkscape:vp_y="0 : 1000 : 0">
		</inkscape:perspective>
	
		<inkscape:perspective  id="perspective3637" inkscape:persp3d-origin="32 : 21.333333 : 1" inkscape:vp_x="0 : 32 : 1" sodipodi:type="inkscape:persp3d" inkscape:vp_z="64 : 32 : 1" inkscape:vp_y="0 : 1000 : 0">
		</inkscape:perspective>
	
		<inkscape:perspective  id="perspective4261" inkscape:persp3d-origin="0.5 : 0.33333333 : 1" inkscape:vp_x="0 : 0.5 : 1" sodipodi:type="inkscape:persp3d" inkscape:vp_z="1 : 0.5 : 1" inkscape:vp_y="0 : 1000 : 0">
		</inkscape:perspective>
	
		<inkscape:perspective  id="perspective7079" inkscape:persp3d-origin="0.5 : 0.33333333 : 1" inkscape:vp_x="0 : 0.5 : 1" sodipodi:type="inkscape:persp3d" inkscape:vp_z="1 : 0.5 : 1" inkscape:vp_y="0 : 1000 : 0">
		</inkscape:perspective>
	
		<inkscape:perspective  id="perspective7102" inkscape:persp3d-origin="0.5 : 0.33333333 : 1" inkscape:vp_x="0 : 0.5 : 1" sodipodi:type="inkscape:persp3d" inkscape:vp_z="1 : 0.5 : 1" inkscape:vp_y="0 : 1000 : 0">
		</inkscape:perspective>
	
		<inkscape:perspective  id="perspective7124" inkscape:persp3d-origin="0.5 : 0.33333333 : 1" inkscape:vp_x="0 : 0.5 : 1" sodipodi:type="inkscape:persp3d" inkscape:vp_z="1 : 0.5 : 1" inkscape:vp_y="0 : 1000 : 0">
		</inkscape:perspective>
	
		<inkscape:perspective  id="perspective7257" inkscape:persp3d-origin="0.5 : 0.33333333 : 1" inkscape:vp_x="0 : 0.5 : 1" sodipodi:type="inkscape:persp3d" inkscape:vp_z="1 : 0.5 : 1" inkscape:vp_y="0 : 1000 : 0">
		</inkscape:perspective>
	
		<inkscape:perspective  id="perspective7381" inkscape:persp3d-origin="0.5 : 0.33333333 : 1" inkscape:vp_x="0 : 0.5 : 1" sodipodi:type="inkscape:persp3d" inkscape:vp_z="1 : 0.5 : 1" inkscape:vp_y="0 : 1000 : 0">
		</inkscape:perspective>
	
		<inkscape:perspective  id="perspective9235" inkscape:persp3d-origin="167.5 : 131.33333 : 1" inkscape:vp_x="0 : 197 : 1" sodipodi:type="inkscape:persp3d" inkscape:vp_z="335 : 197 : 1" inkscape:vp_y="0 : 1000 : 0">
		</inkscape:perspective>
	
		<inkscape:perspective  id="perspective10116" inkscape:persp3d-origin="0.5 : 0.33333333 : 1" inkscape:vp_x="0 : 0.5 : 1" sodipodi:type="inkscape:persp3d" inkscape:vp_z="1 : 0.5 : 1" inkscape:vp_y="0 : 1000 : 0">
		</inkscape:perspective>
	
		<inkscape:perspective  id="perspective3338-2" inkscape:persp3d-origin="320 : 160 : 1" inkscape:vp_x="0 : 240 : 1" sodipodi:type="inkscape:persp3d" inkscape:vp_z="640 : 240 : 1" inkscape:vp_y="0 : 1000 : 0">
		</inkscape:perspective>
	
		<inkscape:perspective  id="perspective3348-9" inkscape:persp3d-origin="0.5 : 0.33333333 : 1" inkscape:vp_x="0 : 0.5 : 1" sodipodi:type="inkscape:persp3d" inkscape:vp_z="1 : 0.5 : 1" inkscape:vp_y="0 : 1000 : 0">
		</inkscape:perspective>
	
		<inkscape:perspective  id="perspective3688-4" inkscape:persp3d-origin="0.5 : 0.33333333 : 1" inkscape:vp_x="0 : 0.5 : 1" sodipodi:type="inkscape:persp3d" inkscape:vp_z="1 : 0.5 : 1" inkscape:vp_y="0 : 1000 : 0">
		</inkscape:perspective>
	
		<inkscape:perspective  id="perspective7520-0" inkscape:persp3d-origin="0.5 : 0.33333333 : 1" inkscape:vp_x="0 : 0.5 : 1" sodipodi:type="inkscape:persp3d" inkscape:vp_z="1 : 0.5 : 1" inkscape:vp_y="0 : 1000 : 0">
		</inkscape:perspective>
	
		<inkscape:perspective  id="perspective3744-2" inkscape:persp3d-origin="0.5 : 0.33333333 : 1" inkscape:vp_x="0 : 0.5 : 1" sodipodi:type="inkscape:persp3d" inkscape:vp_z="1 : 0.5 : 1" inkscape:vp_y="0 : 1000 : 0">
		</inkscape:perspective>
	
		<inkscape:perspective  id="perspective2952-3" inkscape:persp3d-origin="0.5 : 0.33333333 : 1" inkscape:vp_x="0 : 0.5 : 1" sodipodi:type="inkscape:persp3d" inkscape:vp_z="1 : 0.5 : 1" inkscape:vp_y="0 : 1000 : 0">
		</inkscape:perspective>
	
		<inkscape:perspective  id="perspective3007-6" inkscape:persp3d-origin="0.5 : 0.33333333 : 1" inkscape:vp_x="0 : 0.5 : 1" sodipodi:type="inkscape:persp3d" inkscape:vp_z="1 : 0.5 : 1" inkscape:vp_y="0 : 1000 : 0">
		</inkscape:perspective>
	
		<inkscape:perspective  id="perspective2923-0" inkscape:persp3d-origin="0.5 : 0.33333333 : 1" inkscape:vp_x="0 : 0.5 : 1" sodipodi:type="inkscape:persp3d" inkscape:vp_z="1 : 0.5 : 1" inkscape:vp_y="0 : 1000 : 0">
		</inkscape:perspective>
	
		<inkscape:perspective  id="perspective2870-1" inkscape:persp3d-origin="32 : 21.333333 : 1" inkscape:vp_x="0 : 32 : 1" sodipodi:type="inkscape:persp3d" inkscape:vp_z="64 : 32 : 1" inkscape:vp_y="0 : 1000 : 0">
		</inkscape:perspective>
	
		<inkscape:perspective  id="perspective2848-6" inkscape:persp3d-origin="32 : 21.333333 : 1" inkscape:vp_x="0 : 32 : 1" sodipodi:type="inkscape:persp3d" inkscape:vp_z="64 : 32 : 1" inkscape:vp_y="0 : 1000 : 0">
		</inkscape:perspective>
	
		<inkscape:perspective  id="perspective2827-3" inkscape:persp3d-origin="32 : 21.333333 : 1" inkscape:vp_x="0 : 32 : 1" sodipodi:type="inkscape:persp3d" inkscape:vp_z="64 : 32 : 1" inkscape:vp_y="0 : 1000 : 0">
		</inkscape:perspective>
	
		<inkscape:perspective  id="perspective3647-0" inkscape:persp3d-origin="0.5 : 0.33333333 : 1" inkscape:vp_x="0 : 0.5 : 1" sodipodi:type="inkscape:persp3d" inkscape:vp_z="1 : 0.5 : 1" inkscape:vp_y="0 : 1000 : 0">
		</inkscape:perspective>
	
		<inkscape:perspective  id="perspective3637-5" inkscape:persp3d-origin="32 : 21.333333 : 1" inkscape:vp_x="0 : 32 : 1" sodipodi:type="inkscape:persp3d" inkscape:vp_z="64 : 32 : 1" inkscape:vp_y="0 : 1000 : 0">
		</inkscape:perspective>
	
		<inkscape:perspective  id="perspective6386" inkscape:persp3d-origin="0.5 : 0.33333333 : 1" inkscape:vp_x="0 : 0.5 : 1" sodipodi:type="inkscape:persp3d" inkscape:vp_z="1 : 0.5 : 1" inkscape:vp_y="0 : 1000 : 0">
		</inkscape:perspective>
</defs>
<sodipodi:namedview  id="base" inkscape:window-height="1387" inkscape:pageshadow="2" inkscape:pageopacity="0.0" inkscape:snap-page="false" fit-margin-bottom="0" inkscape:window-y="0" inkscape:window-x="0" inkscape:window-width="2560" fit-margin-right="0" inkscape:document-units="px" inkscape:current-layer="layer1" inkscape:snap-bbox="false" inkscape:window-maximized="1" fit-margin-left="0" inkscape:zoom="1" bordercolor="#666666" inkscape:cx="356.97598" fit-margin-top="0" borderopacity="1.0" showgrid="false" pagecolor="#ffffff" inkscape:cy="204.98267">
	</sodipodi:namedview>
<g id="layer1" transform="translate(-60.940784,-522.5918)" inkscape:groupmode="layer" inkscape:label="Layer 1">
	<g id="g11023" transform="matrix(3.3726592,0,0,3.3726592,-1760.236,525.64827)">
		
			<linearGradient id="path3226-99-2-1_1_" gradientUnits="userSpaceOnUse" x1="407.9797" y1="12.8892" x2="407.9796" y2="4.6333" gradientTransform="matrix(2.3416 0 0 -2.242 -471.9252 143.7725)">
			<stop  offset="0" style="stop-color:#FFB142"/>
			<stop  offset="1" style="stop-color:#C87600"/>
		</linearGradient>
		<path id="path3226-99-2-1" inkscape:connector-curvature="0" class="st0" d="M488.968,114.2809
			c-0.0051,4.9563-2.496,8.9676-5.5636,8.9594c-3.0604-0.0082-5.5401-4.0146-5.5452-8.9594
			c-0.0051-4.9563,2.4776-8.9809,5.5452-8.9891c3.0676-0.0082,5.5585,4.003,5.5636,8.9594
			C488.968,114.2611,488.968,114.271,488.968,114.2809z"/>
		
			<linearGradient id="path3228-6-2-1_1_" gradientUnits="userSpaceOnUse" x1="407.9797" y1="12.8892" x2="407.9796" y2="4.6333" gradientTransform="matrix(2.3416 0 0 -2.242 -485.3726 143.7725)">
			<stop  offset="0" style="stop-color:#FFB142"/>
			<stop  offset="1" style="stop-color:#C87600"/>
		</linearGradient>
		<path id="path3228-6-2-1" inkscape:connector-curvature="0" class="st1" d="M475.5206,114.2809
			c-0.0054,4.9563-2.4966,8.9672-5.5642,8.9584c-3.0599-0.0087-5.5391-4.0145-5.5446-8.9584
			c-0.0054-4.9563,2.477-8.9814,5.5446-8.9901c3.0676-0.0088,5.5588,4.0021,5.5642,8.9584
			C475.5206,114.2598,475.5206,114.2703,475.5206,114.2809z"/>
		
			<linearGradient id="path3230-06-1-9_1_" gradientUnits="userSpaceOnUse" x1="407.9797" y1="12.8892" x2="407.9796" y2="4.6333" gradientTransform="matrix(2.3416 0 0 -2.242 -478.7463 143.7725)">
			<stop  offset="0" style="stop-color:#FFB142"/>
			<stop  offset="1" style="stop-color:#C87600"/>
		</linearGradient>
		<path id="path3230-06-1-9" inkscape:connector-curvature="0" class="st2" d="M482.1469,114.2809
			c-0.0054,4.9563-2.4966,8.9672-5.5642,8.9584c-3.0599-0.0087-5.5391-4.0145-5.5446-8.9584
			c-0.0054-4.9563,2.477-8.9814,5.5446-8.9901c3.0676-0.0088,5.5588,4.0021,5.5642,8.9584
			C482.1469,114.2598,482.1469,114.2703,482.1469,114.2809z"/>
		
			<linearGradient id="path3224-49-6-0_1_" gradientUnits="userSpaceOnUse" x1="407.9797" y1="12.8891" x2="407.9796" y2="4.6333" gradientTransform="matrix(2.3416 0 0 -2.242 -441.912 143.7725)">
			<stop  offset="0" style="stop-color:#FFB142"/>
			<stop  offset="1" style="stop-color:#C87600"/>
		</linearGradient>
		<path id="path3224-49-6-0" inkscape:connector-curvature="0" class="st3" d="M518.9812,114.2809
			c-0.0051,4.9563-2.496,8.9676-5.5636,8.9594c-3.0604-0.0082-5.5401-4.0146-5.5452-8.9594
			c-0.0051-4.9563,2.4776-8.9809,5.5452-8.9891c3.0676-0.0082,5.5585,4.003,5.5636,8.9594
			C518.9812,114.2611,518.9812,114.271,518.9812,114.2809z"/>
		
			<linearGradient id="path3220-9-3-8_1_" gradientUnits="userSpaceOnUse" x1="407.9797" y1="12.8892" x2="407.9797" y2="4.6333" gradientTransform="matrix(2.3416 0 0 -2.242 -455.3594 143.7725)">
			<stop  offset="0" style="stop-color:#FFB142"/>
			<stop  offset="1" style="stop-color:#C87600"/>
		</linearGradient>
		<path id="path3220-9-3-8" inkscape:connector-curvature="0" class="st4" d="M505.5338,114.2809
			c-0.0068,4.9564-2.4992,8.9653-5.5668,8.9543c-3.0579-0.011-5.5352-4.0135-5.542-8.9543
			c-0.0068-4.9564,2.4744-8.9833,5.542-8.9944c3.0676-0.0111,5.56,3.9979,5.5668,8.9543
			C505.5338,114.2542,505.5338,114.2675,505.5338,114.2809z"/>
		
			<linearGradient id="path3222-0-0-9_1_" gradientUnits="userSpaceOnUse" x1="407.9797" y1="12.8891" x2="407.9796" y2="4.6333" gradientTransform="matrix(2.3416 0 0 -2.242 -448.7332 143.7725)">
			<stop  offset="0" style="stop-color:#FFB142"/>
			<stop  offset="1" style="stop-color:#C87600"/>
		</linearGradient>
		<path id="path3222-0-0-9" inkscape:connector-curvature="0" class="st5" d="M512.16,114.2809
			c-0.0054,4.9563-2.4966,8.9672-5.5642,8.9584c-3.0599-0.0087-5.5391-4.0145-5.5446-8.9584
			c-0.0054-4.9563,2.477-8.9814,5.5446-8.9901c3.0676-0.0088,5.5588,4.0021,5.5642,8.9584
			C512.16,114.2598,512.16,114.2703,512.16,114.2809z"/>
		<path id="path3250-893-2-8" inkscape:connector-curvature="0" class="st6" d="M469.9663,105.3051
			c-2.2632,0-4.202,2.1946-5.0671,5.3351c7.3946,1.9779,15.5188,3.1315,24.0568,3.2888c-0.1163-4.7884-2.5503-8.624-5.5422-8.624
			c-1.2867,0-2.4686,0.7123-3.4106,1.9002c-0.942-1.1879-2.124-1.9002-3.4106-1.9002c-1.2418,0-2.3879,0.6646-3.3132,1.7784
			C472.3541,105.9696,471.2081,105.3051,469.9663,105.3051z M499.9795,105.3051c-2.9843,0-5.4143,3.8162-5.5422,8.5874
			c8.5287-0.2745,16.6108-1.5527,23.9472-3.642c-0.9149-2.9295-2.7897-4.9454-4.9575-4.9454c-1.2867,0-2.4686,0.7123-3.4106,1.9002
			c-0.942-1.1879-2.124-1.9002-3.4106-1.9002c-1.2418,0-2.3879,0.6646-3.3132,1.7784
			C502.3673,105.9696,501.2213,105.3051,499.9795,105.3051L499.9795,105.3051z"/>
		<path id="path2385-1-1-8" inkscape:connector-curvature="0" class="st7" d="M555.4877,45.6447
			c-0.025,35.6411-28.9382,64.5136-64.5792,64.4886c-35.6057-0.025-64.4636-28.8829-64.4886-64.4886
			c0-35.6411,28.8928-64.5339,64.5339-64.5339S555.4877,10.0036,555.4877,45.6447L555.4877,45.6447z"/>
		<path id="path3167-48-5-0" inkscape:connector-curvature="0" class="st8" d="M522.8521,77.9109
			c-10.3292-1.9191-0.876,8.4314-2.4598,12.174c-6.2612-3.0787-3.8755,7.1135-6.7067,9.9448
			c-5.3649-0.2869-6.2023,5.123-9.9449,6.7068c-4.5221-2.5089-7.8565,2.4598-12.1739,2.4598s-6.8723-4.7738-12.174-2.4598
			c-3.7425-1.5838-4.58-6.7989-9.9448-6.7068c-2.8314-2.8313-2.3945-13.6081-6.7068-9.9448
			c-1.5838-3.7425,5.7256-14.8726-2.4598-12.174c0-4.3174,8.6716-12.3292,2.4598-12.1739c1.5838-3.7425,9.5273-6.5288,6.7068-9.9448
			c5.6627-5.6626,13.4839-9.1666,22.1188-9.1666c8.6347,0,16.4561,3.504,22.1188,9.1666c-4.1848,2.0518,5.1229,6.2023,6.7067,9.9448
			C513.401,65.3868,522.8521,73.5935,522.8521,77.9109L522.8521,77.9109z"/>
		<path id="path3211-96-6-3" inkscape:connector-curvature="0" class="st6" d="M547.9714,15.4117
			c0.772,3.9884,1.1815,8.1018,1.1815,12.3147c0,1.4538-0.0513,2.8942-0.1462,4.3241c-1.4315-0.0713-2.9539,0.007-4.58,0.2436
			c-13.7264,2.9228-7.8632,20.1377-11.4377,38.1499c-11.8269,13.3807-29.1204,21.8156-48.3696,21.8156
			c-11.8389,0-22.9315-3.199-32.4736-8.7701c-9.2297-21.6105,3.1479-45.084-13.1186-49.1369
			c-17.973-3.2451-24.9345,13.4304-13.3135,38.4179c6.4162,13.796,17.0424,20.5726,24.8608,23.2042
			c11.0555,8.8871,25.0988,14.2027,40.3789,14.2027c17.9103,0,34.1283-7.3043,45.8238-19.0993
			c6.8031-3.3979,14.368-9.5866,19.6232-19.9398c9.8273-19.3608,7.9456-33.9416-2.1317-37.9794
			C553.0333,26.8694,550.891,20.9034,547.9714,15.4117L547.9714,15.4117z"/>
		<path id="path3169-7-5-7" inkscape:connector-curvature="0" class="st9" d="M438.9733,31.2153
			c18.7529,6.7432-5.5206,36.6951,14.7412,62.8296c3.7452,4.8307-22.5559,0.8149-31.8541-25.9537
			C412.8182,42.0594,421.4191,26.1745,438.9733,31.2153z"/>
		<path id="path3800-73-0-0" inkscape:connector-curvature="0" class="st10" d="M542.8278,31.2153
			c-18.7529,6.7432,5.5206,36.6951-14.7412,62.8296c-3.7452,4.8307,22.5559,0.8149,31.8541-25.9537
			C568.983,42.0594,560.382,26.1745,542.8278,31.2153z"/>
		<path id="path2413-7-0-6" inkscape:connector-curvature="0" class="st11" d="M535.9384,27.6887
			c5.2187-1.7965,10.6103,2.956,11.6409,5.5271c-5.2668-1.3456-7.6863-1.7251-9.0501-0.5382
			c0.5873,1.3141,6.7855,2.6279,8.7067,11.2535c-4.8445-3.3586-8.6935-7.2404-10.2405-5.6453
			c1.1232,1.9621,2.4165,5.6508,1.5449,9.3083c-2.7836-3.6735-5.6279-7.5534-8.2405-7.6584"/>
		<path id="path2387-1-3-9" inkscape:connector-curvature="0" class="st12" d="M473.0428-4.1695
			c-12.1746,0-22.0629,11.4328-22.0629,25.5197c0,14.0868,9.8883,25.5197,22.0629,25.5197c7.1547,0,13.5038-3.9527,17.5342-10.0679
			c4.0303,6.1196,10.3932,10.0679,17.5508,10.0679c12.1747,0,22.063-11.4329,22.063-25.5197s-9.8883-25.5197-22.063-25.5197
			c-7.1569,0-13.5205,3.9495-17.5508,10.0679C486.5466-0.2154,480.1967-4.1695,473.0428-4.1695z"/>
		<path id="path3407-2-4-2" inkscape:connector-curvature="0" class="st6" d="M491.2454,39.0608
			c-3.6202,0-7.5554,4.0254-7.398,6.5677c0.1575,2.5423,6.4536,13.1354,7.8702,13.1354c1.4166,0,6.9257-10.3812,6.7684-13.3473
			C498.3286,42.4506,493.6065,38.8489,491.2454,39.0608L491.2454,39.0608z"/>
		
			<linearGradient id="path2391-21-6-1_1_" gradientUnits="userSpaceOnUse" x1="542.7017" y1="-29.0609" x2="555.9366" y2="-29.0609" gradientTransform="matrix(0.8433 0 0 -1.0228 31.819 14.0749)">
			<stop  offset="0" style="stop-color:#FFB142"/>
			<stop  offset="1" style="stop-color:#C87600"/>
		</linearGradient>
		<path id="path2391-21-6-1" inkscape:connector-curvature="0" class="st13" d="M490.4186,34.9256
			c-3.6203,0-7.5554,3.6274-7.398,5.9184c0.1574,2.291,6.4536,11.8367,7.8702,11.8367c1.4166,0,6.9258-9.3548,6.7684-12.0276
			C497.5017,37.9803,492.7796,34.7347,490.4186,34.9256z"/>
		<path id="path3193-50-6-7" inkscape:connector-curvature="0" class="st11" d="M445.7582,27.6887
			c-5.2187-1.7965-10.6102,2.956-11.6409,5.5271c5.2668-1.3456,7.6863-1.7251,9.0501-0.5382
			c-0.5873,1.3141-6.7854,2.6279-8.7067,11.2535c4.8445-3.3586,8.6935-7.2404,10.2405-5.6453
			c-1.1232,1.9621-2.4164,5.6508-1.5449,9.3083c2.7836-3.6735,5.6279-7.5534,8.2406-7.6584"/>
		<path id="path3283-90-0-7" inkscape:connector-curvature="0" class="st14" d="M495.9727,0.1254
			c5.1747-12.5353,13.9019-14.2322,13.9019-14.2322s-4.8541,6.5387-0.4576,4.7198c6.8077-2.8165,28.4529,6.0098,28.4529,6.0098
			S509.1917-10.0527,495.9727,0.1254z"/>
		<path id="path3285-4-2-9" inkscape:connector-curvature="0" class="st14" d="M484.1073-1.044
			c-5.1747-12.5353-13.9018-14.2322-13.9018-14.2322s4.8541,6.5387,0.4576,4.7198c-6.8076-2.8165-28.4528,6.0098-28.4528,6.0098
			S470.8882-11.222,484.1073-1.044z"/>
		<g id="g4399-0-5-7" transform="matrix(0.38978176,0,0,0.38978176,467.48417,-131.82563)">
			<path id="path2411-13-8-6" inkscape:connector-curvature="0" class="st15" d="M55.6706,409.0073
				c0,9.0504-7.3368,16.3871-16.3871,16.3871s-16.3871-7.3368-16.3871-16.3871c0-9.0503,7.3368-16.3871,16.3871-16.3871
				S55.6706,399.9569,55.6706,409.0073z"/>
			<path id="path3341-7-9-2" inkscape:connector-curvature="0" class="st16" d="M37.6182,403.2681
				c-0.0015,2.3472-1.9055,4.2487-4.2528,4.2472c-2.345-0.0015-4.2457-1.9021-4.2472-4.2472
				c-0.0015-2.3472,1.9-4.2513,4.2472-4.2528c2.3472-0.0015,4.2512,1.9001,4.2528,4.2473
				C37.6182,403.2644,37.6182,403.2663,37.6182,403.2681z"/>
		</g>
		<g id="g4395-4-5-7" transform="matrix(0.38978176,0,0,0.38978176,467.48417,-131.82563)">
			<path id="path3301-1-0-1" inkscape:connector-curvature="0" class="st15" d="M89.7262,395.2754
				c7.5839,4.9389,9.7281,15.0907,4.7892,22.6746c-4.9389,7.5839-15.0907,9.7281-22.6746,4.7892
				c-7.5839-4.9389-9.7281-15.0907-4.7892-22.6746C71.9905,392.4807,82.1423,390.3365,89.7262,395.2754L89.7262,395.2754z"/>
			<path id="path3343-13-6-5" inkscape:connector-curvature="0" class="st16" d="M79.1182,403.2681
				c-0.0015,2.3472-1.9055,4.2487-4.2528,4.2472c-2.345-0.0015-4.2457-1.9021-4.2472-4.2472
				c-0.0015-2.3472,1.9-4.2513,4.2472-4.2528c2.3472-0.0015,4.2513,1.9001,4.2528,4.2473
				C79.1182,403.2644,79.1182,403.2663,79.1182,403.2681z"/>
		</g>
		<path id="path3200-0-0-8" inkscape:connector-curvature="0" class="st6" d="M548.9703,30.2843
			c-0.1609-0.0002-0.3242,0.008-0.4873,0.0122c6.3192,5.0923,8.9935,16.8764,5.7615,33.2654
			c-4.2966,21.7868-20.8832,31.1857-26.3956,31.6819c1.79,2.5439,23.7654-3.1673,32.0961-27.1507
			C567.857,45.3152,562.2527,30.3037,548.9703,30.2843L548.9703,30.2843z"/>
		<path id="path3205-32-8-8" inkscape:connector-curvature="0" class="st6" d="M418.8318,42.8304
			c-1.3455,6.4337-0.5062,15.0739,3.033,25.2627c9.2982,26.7686,35.5977,30.7877,31.8525,25.957
			c-1.6016-2.0658-2.9313-4.1607-4.0196-6.2608c-7.387-1.7702-21.0668-9.5014-27.2482-27.2969
			C420.1578,53.8947,418.9985,47.949,418.8318,42.8304L418.8318,42.8304z M446.6159,45.303
			c-0.3441,3.3272-0.7235,6.8648-0.8892,10.5728C446.1139,52.0597,446.5372,48.493,446.6159,45.303z"/>
		
			<linearGradient id="rect2830-0-7-4-7-4_1_" gradientUnits="userSpaceOnUse" x1="591.8015" y1="-43.5126" x2="610.71" y2="-107.9101" gradientTransform="matrix(0.6672 0 0 -0.653 93.5068 86.3963)">
			<stop  offset="0" style="stop-color:#A9A9A9"/>
			<stop  offset="0.2629" style="stop-color:#9C9C9C"/>
			<stop  offset="0.4895" style="stop-color:#97989C"/>
			<stop  offset="0.7782" style="stop-color:#9E9FA1"/>
			<stop  offset="1" style="stop-color:#ACACAC"/>
		</linearGradient>
		<path id="rect2830-0-7-4-7-4" inkscape:connector-curvature="0" sodipodi:nodetypes="ccccccccccc" class="st17" d="
			M440.1675,121.024v2.3658c0,2.2219,1.8223,4.0116,4.0925,4.0116l7.233,0.0001v-1.1313h78.7353v1.1313h6.8374
			c2.2701,0,4.0987-1.7897,4.0987-4.0117v-2.3658H440.1674H440.1675z"/>
		<path id="rect2830-2-2-8-5" inkscape:connector-curvature="0" sodipodi:nodetypes="ccccccccc" class="st18" d="M439.9072,56.1834
			h102.239c2.5012,0,4.5146,1.7714,4.5146,3.9717l-3.3438,60.0877c0,2.2003-1.6582,3.9718-4.1592,3.9718h-95.1239
			c-2.5011,0-5.3687-1.7715-5.3687-3.9718l-3.2726-60.0877C435.3926,57.9548,437.4061,56.1834,439.9072,56.1834z"/>
	</g>
</g>
<rect x="-329.6411" y="275.1519" class="st19" width="330" height="83"/>
<text transform="matrix(1 0 0 1 -321.145 320.1519)"><tspan x="0" y="0" class="st20 st21 st22">N</tspan><tspan x="42.6563" y="0" class="st20 st21 st22">A</tspan><tspan x="83.0273" y="0" class="st20 st21 st22">UČI </tspan><tspan x="195.3223" y="0" class="st20 st21 st22">K</tspan><tspan x="232.793" y="0" class="st20 st21 st22">OD</tspan></text>
</svg>
