<?xml version="1.0" standalone="no"?>
<!DOCTYPE svg PUBLIC "-//W3C//DTD SVG 20010904//EN"
 "http://www.w3.org/TR/2001/REC-SVG-20010904/DTD/svg10.dtd">
<svg version="1.0" xmlns="http://www.w3.org/2000/svg"
 width="1000.000000pt" height="1000.000000pt" viewBox="0 0 1000.000000 1000.000000"
 preserveAspectRatio="xMidYMid meet">
<metadata>
Created by potrace 1.14, written by Peter Selinger 2001-2017
</metadata>
<g transform="translate(0.000000,1000.000000) scale(0.100000,-0.100000)"
fill="#000000" stroke="none">
<path d="M4778 9995 c-2 -2 -48 -6 -103 -9 -55 -3 -111 -8 -125 -10 -14 -3
-52 -8 -85 -11 -82 -9 -100 -12 -175 -25 -36 -6 -76 -13 -90 -15 -14 -2 -34
-6 -45 -9 -11 -2 -54 -12 -95 -21 -109 -23 -105 -22 -173 -40 -34 -9 -69 -18
-77 -20 -8 -2 -36 -10 -62 -18 -27 -8 -48 -12 -48 -9 0 4 -4 2 -8 -3 -6 -10
-104 -45 -145 -52 -10 -2 -31 -10 -47 -18 -17 -9 -32 -15 -35 -15 -3 0 -20 -6
-38 -14 -19 -7 -45 -17 -58 -21 -13 -4 -51 -20 -84 -35 -33 -15 -77 -33 -97
-40 -21 -8 -38 -18 -38 -23 0 -4 -4 -6 -9 -2 -5 3 -16 -1 -24 -9 -8 -8 -28
-18 -43 -22 -16 -4 -40 -14 -53 -23 -26 -16 -87 -49 -181 -97 -30 -15 -61 -34
-68 -41 -7 -7 -39 -20 -70 -29 -162 -45 -209 -59 -342 -102 -80 -25 -147 -46
-150 -47 -20 -3 -181 -60 -202 -71 -16 -8 -28 -12 -28 -8 0 4 -7 1 -15 -6 -8
-7 -15 -9 -15 -5 0 4 -6 3 -12 -2 -7 -6 -38 -18 -68 -28 -30 -10 -59 -20 -65
-24 -5 -3 -15 -6 -21 -7 -29 -5 -122 -55 -128 -69 -11 -29 -7 -51 15 -74 21
-22 44 -24 114 -8 11 3 40 8 65 13 25 4 47 8 50 9 13 3 88 16 115 20 17 2 44
7 60 10 83 15 95 15 95 5 0 -5 -4 -10 -8 -10 -4 0 -31 -22 -60 -48 -29 -27
-52 -46 -52 -44 0 7 -309 -306 -360 -364 -25 -29 -61 -71 -80 -94 -19 -24 -39
-48 -45 -54 -21 -23 -134 -174 -180 -241 -27 -38 -52 -72 -56 -75 -4 -3 -9
-12 -11 -20 -2 -8 -11 -23 -20 -34 -10 -11 -24 -32 -30 -48 -7 -15 -16 -28
-20 -28 -5 0 -8 -7 -8 -15 0 -8 -4 -15 -10 -15 -5 0 -10 -5 -10 -11 0 -6 -8
-23 -18 -37 -41 -59 -202 -368 -202 -388 0 -6 -7 -17 -15 -24 -8 -7 -15 -19
-15 -26 0 -8 -13 -42 -29 -76 -63 -137 -195 -525 -215 -631 -3 -12 -5 -23 -7
-24 -2 -4 -6 -20 -8 -33 0 -6 -31 -25 -69 -43 -189 -91 -341 -241 -437 -432
-16 -33 -34 -63 -40 -67 -5 -4 -6 -8 -1 -8 5 0 3 -6 -3 -13 -6 -8 -8 -17 -4
-20 3 -4 1 -7 -6 -7 -7 0 -10 -4 -7 -8 3 -5 -1 -20 -8 -33 -13 -25 -54 -171
-62 -218 -2 -14 -9 -47 -14 -73 -30 -148 -34 -572 -6 -723 2 -11 8 -49 12 -85
4 -36 9 -67 9 -70 1 -3 5 -21 8 -40 4 -19 10 -48 13 -65 3 -16 7 -37 8 -45 3
-14 19 -89 21 -100 1 -3 5 -16 8 -30 4 -14 9 -36 11 -50 3 -14 5 -26 7 -27 2
-3 3 -7 13 -48 15 -60 49 -172 84 -280 20 -60 37 -112 38 -115 0 -3 4 -14 9
-25 4 -11 23 -60 43 -110 19 -49 45 -111 58 -137 14 -27 21 -48 17 -48 -5 0
-3 -4 2 -8 6 -4 26 -38 44 -77 19 -38 45 -87 58 -107 13 -21 20 -38 16 -38 -5
0 -3 -4 3 -8 5 -4 21 -25 34 -47 27 -46 156 -239 175 -264 70 -86 125 -152
150 -181 28 -33 260 -263 287 -285 7 -6 38 -31 68 -56 l55 -45 2 -89 c3 -183
8 -250 18 -257 6 -5 5 -8 -3 -8 -7 0 -11 -4 -8 -8 3 -5 8 -65 11 -133 4 -68 8
-149 10 -179 2 -30 7 -111 10 -180 6 -123 12 -217 20 -355 2 -38 6 -117 9
-175 6 -116 14 -263 21 -385 3 -44 8 -129 11 -190 6 -137 23 -199 69 -252 23
-27 36 -54 39 -80 12 -116 88 -220 196 -272 l55 -26 323 -3 322 -3 0 38 0 39
2583 -2 c1420 -1 2585 -2 2589 -3 4 0 6 -16 5 -34 l-2 -32 289 -3 c247 -2 297
0 340 14 70 23 127 61 166 113 37 47 62 91 53 91 -3 0 0 7 7 15 7 8 9 15 5 15
-4 0 18 25 48 55 83 81 103 137 112 300 8 141 15 278 20 360 3 44 7 123 10
175 3 52 7 136 10 185 3 50 7 128 10 175 2 47 6 123 9 170 3 47 8 132 11 190
5 111 12 222 20 355 3 44 8 130 11 190 10 210 10 207 35 228 170 137 438 412
493 506 6 9 20 27 33 41 13 14 23 28 23 32 0 3 6 13 13 20 19 20 67 96 67 107
0 5 7 11 15 15 8 3 15 12 15 21 0 8 5 15 10 15 6 0 10 6 10 14 0 7 7 19 15 26
8 7 13 16 10 20 -3 5 -2 10 2 12 18 8 149 269 210 418 38 94 114 306 117 330
1 8 5 22 8 30 15 39 59 199 61 218 1 12 6 22 11 22 5 0 7 2 4 6 -5 4 -1 27 18
99 3 11 7 36 10 55 2 19 8 44 11 55 4 11 8 27 9 35 2 8 6 35 10 60 4 25 9 52
10 60 2 8 6 35 9 60 4 25 8 56 10 70 25 173 25 597 0 690 -2 8 -7 35 -10 60
-3 25 -8 53 -11 62 -3 9 -7 25 -9 35 -16 77 -55 195 -85 254 -11 21 -18 39
-15 39 8 0 -93 160 -133 210 -44 55 -112 121 -160 158 -21 15 -43 33 -50 39
-7 7 -24 16 -38 19 -13 3 -24 9 -24 13 0 4 -25 18 -55 30 -43 18 -56 29 -61
49 -3 15 -9 36 -12 47 -3 11 -7 25 -8 30 -1 6 -9 35 -19 65 -9 30 -18 64 -20
75 -4 19 -49 154 -62 185 -3 8 -7 17 -8 20 -7 27 -19 61 -32 89 -8 18 -16 39
-18 45 -1 6 -7 22 -13 36 -27 65 -35 85 -37 90 -4 20 -158 335 -198 405 -12
22 -25 42 -30 43 -4 2 -5 7 -2 12 2 4 -7 20 -20 36 -14 16 -25 32 -25 36 0 11
-103 172 -112 176 -5 2 -8 10 -8 17 0 7 -3 15 -7 17 -5 2 -28 32 -53 68 -24
36 -48 70 -52 75 -135 173 -174 222 -183 231 -5 7 -35 40 -65 75 -30 35 -119
128 -198 207 -97 96 -136 141 -120 138 59 -13 145 -29 168 -32 59 -7 96 61 55
102 -11 12 -57 35 -102 52 -46 18 -119 46 -162 63 -44 17 -85 32 -93 33 -7 2
-20 6 -28 9 -8 4 -58 21 -110 38 -100 33 -157 56 -177 74 -26 22 -39 30 -65
44 -16 8 -28 18 -28 23 0 4 -7 8 -15 8 -8 0 -15 5 -15 10 0 6 -6 10 -13 10 -7
0 -23 9 -35 20 -12 11 -24 20 -28 20 -4 0 -35 18 -70 40 -35 22 -68 40 -73 40
-5 0 -11 3 -13 8 -10 22 -438 228 -588 282 -19 7 -50 19 -69 27 -18 8 -41 17
-50 18 -9 2 -17 4 -18 5 -2 2 -6 3 -10 5 -5 1 -15 4 -23 8 -48 18 -147 47
-162 47 -10 0 -18 5 -18 12 0 6 -3 9 -6 6 -3 -4 -20 -2 -37 3 -18 6 -41 12
-52 15 -11 3 -24 6 -30 8 -5 1 -26 6 -45 10 -19 5 -39 11 -45 14 -5 4 -21 7
-35 8 -14 1 -25 3 -25 4 0 1 -9 4 -20 6 -30 4 -77 14 -105 20 -14 4 -38 8 -55
10 -16 2 -52 8 -80 14 -96 18 -213 33 -360 46 -58 5 -573 13 -577 9z"/>
</g>
</svg>
